<?xml version="1.0" encoding="utf-8"?>
<!-- Generator: Adobe Illustrator 22.0.1, SVG Export Plug-In . SVG Version: 6.00 Build 0)  -->
<svg version="1.1" id="Layer_1" xmlns="http://www.w3.org/2000/svg" xmlns:xlink="http://www.w3.org/1999/xlink" x="0px" y="0px"
	 viewBox="0 0 452.7 424.7" style="enable-background:new 0 0 452.7 424.7;" xml:space="preserve">
<style type="text/css">
	.st0{fill:#FFFFFF;}
</style>
<path class="st0" d="M449.3,34.3c4.9-4.9,4.9-13,0-17.9l-7.7-7.7c-4.9-4.9-13-4.9-17.9,0L326.5,106c-0.1,0.1-0.1,0.2-0.2,0.2
	l-5.9-5.9c0.1-0.1,0.2-0.1,0.2-0.2l67.3-67.3c4.9-4.9,4.9-13,0-17.9l-7.7-7.7c-4.9-4.9-13-4.9-17.9,0L295,74.6
	c-0.1,0.1-0.1,0.2-0.2,0.2l-5.9-5.9l33-33c4.9-4.9,4.9-13,0-17.9l-7.7-7.7c-4.9-4.9-13-4.9-17.9,0l-33,33L229.5,9.6
	c-9.9-9.9-25.9-9.9-35.7,0l-40.7,40.7L201.9,99c3.6-1.4,7.5-2.1,11.5-2.1c17.9,0,32.5,14.5,32.5,32.5c0,4.1-0.7,7.9-2.1,11.5
	l46.1,46.1c3.6-1.4,7.5-2.1,11.5-2.1c17.9,0,32.5,14.5,32.5,32.5c0,17.9-14.5,32.5-32.5,32.5s-32.5-14.5-32.5-32.5
	c0-4.3,0.9-8.4,2.4-12.2l-45.4-45.4v116c11.2,5.1,19,16.4,19,29.5c0,17.9-14.5,32.5-32.5,32.5s-32.5-14.5-32.5-32.5
	c0-13.5,8.3-25.1,20-30V158.9c-11.2-5.1-19-16.4-19-29.5c0-4.3,0.9-8.4,2.4-12.2l-48.5-48.5L8.5,194.9c-9.9,9.9-9.9,25.9,0,35.7
	L193.8,416c9.9,9.9,25.9,9.9,35.7,0l185.4-185.4c9.9-9.9,9.9-25.9,0-35.7l-31.6-31.6c0.1-0.1,0.2-0.1,0.2-0.2l49.3-49.3
	c4.9-4.9,4.9-13,0-17.9l-7.7-7.7c-4.9-4.9-13-4.9-17.9,0l-49.3,49.3c-0.1,0.1-0.1,0.2-0.2,0.2l-5.9-5.9c0.1-0.1,0.2-0.1,0.2-0.2
	L449.3,34.3z"/>
</svg>
